999
"DXF R12 Output" (www.mydxf.blogspot.com)
 0 
SECTION
 2 
HEADER
 9 
$ACADVER
 1 
AC1009
 9 
$EXTMIN
 10 
 0 
 20 
 0 
 9 
$EXTMAX
 10 
 8.5 
 20 
 11 
 0 
ENDSEC
 0 
SECTION
 2 
ENTITIES
0
LINE
8
0
10
98.524563
20
161.017869
11
93.524571
21
161.017869
0
LINE
8
0
10
93.524571
20
161.017869
11
93.524571
21
156.017877
0
LINE
8
0
10
93.524571
20
156.017877
11
98.524563
21
156.017877
0
LINE
8
0
10
98.524563
20
156.017877
11
100.143539
21
155.910392
0
LINE
8
0
10
100.143539
20
155.910392
11
101.713607
21
155.594792
0
LINE
8
0
10
101.713607
20
155.594792
11
103.216955
21
155.081362
0
LINE
8
0
10
103.216955
20
155.081362
11
104.635771
21
154.380384
0
LINE
8
0
10
104.635771
20
154.380384
11
105.952244
21
153.502142
0
LINE
8
0
10
105.952244
20
153.502142
11
107.148561
21
152.456920
0
LINE
8
0
10
107.148561
20
152.456920
11
108.206913
21
151.255001
0
LINE
8
0
10
108.206913
20
151.255001
11
109.109486
21
149.906669
0
LINE
8
0
10
109.109486
20
149.906669
11
111.609483
21
145.576546
0
LINE
8
0
10
111.609483
20
145.576546
11
115.939606
21
148.076543
0
LINE
8
0
10
115.939606
20
148.076543
11
113.439609
21
152.406666
0
LINE
8
0
10
113.439609
20
152.406666
11
112.723206
21
153.862483
0
LINE
8
0
10
112.723206
20
153.862483
11
112.211490
21
155.380001
0
LINE
8
0
10
112.211490
20
155.380001
11
111.904460
21
156.938654
0
LINE
8
0
10
111.904460
20
156.938654
11
111.802117
21
158.517873
0
LINE
8
0
10
111.802117
20
158.517873
11
111.904460
21
160.097092
0
LINE
8
0
10
111.904460
20
160.097092
11
112.211490
21
161.655745
0
LINE
8
0
10
112.211490
20
161.655745
11
112.723206
21
163.173263
0
LINE
8
0
10
112.723206
20
163.173263
11
113.439609
21
164.629080
0
LINE
8
0
10
113.439609
20
164.629080
11
115.939606
21
168.959203
0
LINE
8
0
10
115.939606
20
168.959203
11
111.609483
21
171.459200
0
LINE
8
0
10
111.609483
20
171.459200
11
109.109486
21
167.129077
0
LINE
8
0
10
109.109486
20
167.129077
11
108.206913
21
165.780745
0
LINE
8
0
10
108.206913
20
165.780745
11
107.148561
21
164.578826
0
LINE
8
0
10
107.148561
20
164.578826
11
105.952244
21
163.533604
0
LINE
8
0
10
105.952244
20
163.533604
11
104.635771
21
162.655362
0
LINE
8
0
10
104.635771
20
162.655362
11
103.216955
21
161.954384
0
LINE
8
0
10
103.216955
20
161.954384
11
101.713607
21
161.440953
0
LINE
8
0
10
101.713607
20
161.440953
11
100.143539
21
161.125354
0
LINE
8
0
10
100.143539
20
161.125354
11
98.524563
21
161.017869
0
LINE
8
0
10
98.524563
20
161.017869
11
98.524563
21
161.017869
 0 
ENDSEC
 0 
EOF